<?xml version="1.0" encoding="UTF-8"?>
<svg id="Layer_1" data-name="Layer 1" xmlns="http://www.w3.org/2000/svg" viewBox="0 0 11.05 1.88">
  <defs>
    <style>
      .cls-1 {
        fill: #33669a;
      }
    </style>
  </defs>
  <path class="cls-1" d="m.14.97C.14.54.48.19.91.19c.13,0,.21.04.26.04.05,0,.07-.04.12-.04.04,0,.06.02.09.11.02.08.05.17.07.3,0,.06,0,.1-.06.11-.05,0-.07-.03-.11-.1-.1-.14-.22-.26-.39-.26-.25,0-.4.2-.4.47,0,.35.18.66.5.66.15,0,.28-.07.4-.19.05-.06.12,0,.08.07-.09.19-.32.33-.6.33C.45,1.69.14,1.42.14.97Z"/>
  <path class="cls-1" d="m1.6,1.21c0-.31.25-.56.59-.56.29,0,.49.21.49.49,0,.32-.25.56-.59.56-.28,0-.49-.19-.49-.48Zm.76.09c0-.23-.11-.5-.27-.5-.13,0-.17.14-.17.26,0,.23.11.48.27.48.13,0,.16-.12.16-.23Z"/>
  <path class="cls-1" d="m3.68.85c0,.1-.05.15-.11.15-.11,0-.1-.12-.21-.12-.07,0-.13.07-.13.2v.29c0,.19.1.14.1.24,0,.05-.04.06-.1.06h-.34c-.06,0-.1-.01-.1-.06,0-.1.1-.05.1-.24v-.39c0-.05-.03-.08-.06-.11-.02-.01-.04-.03-.04-.06,0-.04.02-.05.07-.08.08-.04.24-.08.28-.09.04,0,.05.03.05.07v.1c.08-.13.19-.17.28-.17.12,0,.2.08.2.2Z"/>
  <path class="cls-1" d="m4.72,1.39c-.04.12-.22.31-.51.31s-.5-.2-.5-.49c0-.32.26-.55.55-.55.26,0,.4.16.43.34,0,.03-.01.06-.05.08-.21.1-.35.16-.56.24.04.08.13.15.28.15.12,0,.22-.06.29-.13.05-.04.09,0,.07.06Zm-.7-.35s0,.1.02.13c.1-.03.19-.07.29-.11.04-.02.07-.03.05-.09-.03-.12-.13-.19-.22-.16-.09.02-.14.11-.14.23Z"/>
  <path class="cls-1" d="m5.43.21c.44,0,.7.22.7.56,0,.32-.23.47-.64.47h-.14s-.04,0-.04.04v.02c0,.25.14.19.14.31,0,.05-.03.07-.12.07h-.38c-.09,0-.12-.02-.12-.07,0-.11.14-.05.14-.31v-.7c0-.29-.14-.2-.14-.32,0-.05.03-.07.12-.07h.49Zm.36.59c0-.29-.18-.45-.36-.45-.11,0-.11.01-.11.06v.62c0,.05.04.07.16.07.2,0,.32-.11.32-.29Z"/>
  <path class="cls-1" d="m6.33.55c0-.12-.1-.12-.1-.18,0-.03.02-.05.07-.07.08-.04.27-.1.31-.1.04,0,.05.03.05.07v.29s0,.83,0,.83c0,.19.1.14.1.24,0,.05-.04.06-.1.06h-.34c-.06,0-.1-.01-.1-.06,0-.1.1-.05.1-.24v-.83Z"/>
  <path class="cls-1" d="m8.05,1.54c0,.08-.13.15-.23.15-.09,0-.16-.04-.19-.15-.11.11-.25.15-.37.15-.22,0-.37-.13-.37-.3,0-.2.17-.35.49-.35.04,0,.07,0,.14.01-.04-.11-.09-.21-.23-.21-.08,0-.17.04-.24.08-.04.02-.09,0-.06-.06.05-.09.22-.21.42-.21.29,0,.36.2.41.37l.11.36c.02.07.04.12.09.11.02,0,.04.01.04.04Zm-.47-.16s-.02-.08-.04-.14c-.02-.05-.07-.07-.14-.07-.13,0-.21.07-.21.17,0,.11.08.19.21.19.1,0,.2-.07.19-.15Z"/>
  <path class="cls-1" d="m9.31,1.43c.03.13.11.11.11.19,0,.05-.04.06-.1.06h-.33c-.06,0-.1-.01-.1-.06,0-.07.11-.07.08-.21l-.07-.32c-.02-.12-.07-.23-.18-.23-.1,0-.18.09-.18.24v.28c0,.19.1.14.1.24,0,.05-.04.06-.1.06h-.34c-.06,0-.1-.01-.1-.06,0-.1.1-.05.1-.24v-.39c0-.05-.03-.08-.06-.11-.02-.01-.04-.03-.04-.06,0-.04.02-.05.07-.08.08-.04.24-.08.28-.09.04,0,.05.03.05.07v.1c.08-.12.2-.17.33-.17.25,0,.33.17.39.43l.08.35Z"/>
  <path class="cls-1" d="m9.61.58c0-.25-.14-.19-.14-.31,0-.05.03-.07.12-.07h.38c.09,0,.12.02.12.07,0,.11-.14.05-.14.31v.72c0,.25.14.19.14.31,0,.05-.03.07-.12.07h-.38c-.09,0-.12-.02-.12-.07,0-.11.14-.05.14-.31v-.72Z"/>
  <path class="cls-1" d="m10.95,1.46c-.03.1-.15.23-.33.23-.2,0-.32-.12-.32-.35v-.13c0-.16,0-.3,0-.4h-.05c-.06,0-.08-.02-.08-.06,0-.03.01-.06.04-.09.08-.08.19-.17.28-.22.05-.03.08-.03.09-.03.03,0,.05.03.05.06,0,.06,0,.12-.01.18h.21s.08.01.06.08c-.01.07-.05.08-.1.08h-.18s0,.38,0,.38c0,.21.03.26.12.26.05,0,.1-.02.15-.06.04-.03.08,0,.06.05Z"/>
</svg>